<svg aria-hidden="true" width="100" height="100" viewBox="0 0 100 100" fill="none" xmlns="http://www.w3.org/2000/svg">
	<g opacity="1" fill="#FFF">
		<g opacity=".5">
			<g opacity=".5">
				<path opacity=".5" d="M78.2 78.2H67.757l-2 2H80.2V65.758l-2 2V78.2zM34.242 80.2l-2-2H21.8V67.758l-2-2V80.2h14.442zM32.242 21.801l2-2H19.801v3.5l2 2v-3.5h10.441zM65.758 19.8l2 2H78.2v3.5l2-2v-3.5H65.757z"></path>
			</g>
			<g opacity=".5">
				<path opacity=".5" d="M95 50L84.15 39.15l-1.417 1.408L92.175 50 64.8 77.367l.017 2.816L95 50zM35.183 80.183l.017-2.817L7.825 50l9.442-9.442-1.417-1.408L5 50l30.183 30.183zM60.858 84.142l-1.833-1L50 92.175l-9.025-9.033-1.833 1L50 95l10.858-10.858zM50 5L25.75 29.25l1.417 1.408L50 7.825l22.833 22.833 1.417-1.408L50 5z"></path>
			</g>
		</g>
		<path d="M16.058 16.058A48.3 48.3 0 0 1 31.316 5.775C37.233 3.267 43.516 2 50 2c6.483 0 12.766 1.267 18.683 3.775a47.893 47.893 0 0 1 8.15 4.425 48.844 48.844 0 0 1 7.108 5.858c.584.584 1.15 1.184 1.709 1.792l1.416-1.417C77.916 6.342 64.7 0 50 0 35.3 0 22.083 6.342 12.94 16.442l1.417 1.416a43.412 43.412 0 0 1 1.7-1.8zM91.675 22.367v3.8A47.737 47.737 0 0 1 98 49.992c0 6.483-1.267 12.766-3.775 18.683a47.9 47.9 0 0 1-4.425 8.15 48.83 48.83 0 0 1-5.858 7.108 48.3 48.3 0 0 1-15.259 10.284A47.737 47.737 0 0 1 50 97.992c-6.483 0-12.767-1.267-18.683-3.775a47.897 47.897 0 0 1-8.15-4.425 48.83 48.83 0 0 1-7.109-5.859A48.306 48.306 0 0 1 5.775 68.675C3.267 62.767 2 56.483 2 50c0-6.483 1.267-12.767 3.775-18.683a48.338 48.338 0 0 1 2.55-5.142v-3.8C3.067 30.283 0 39.783 0 50c0 27.617 22.383 50 50 50s50-22.383 50-50a49.776 49.776 0 0 0-8.325-27.633z"></path>
		<g opacity=".25">
			<path opacity=".25" d="M4.167 49.867v.266c.017 6.142 1.225 12.1 3.6 17.708a45.676 45.676 0 0 0 9.825 14.567 45.676 45.676 0 0 0 14.567 9.825c5.608 2.375 11.566 3.584 17.708 3.6h.267c6.141-.016 12.1-1.225 17.708-3.6a45.676 45.676 0 0 0 14.567-9.825 45.676 45.676 0 0 0 9.825-14.567c2.375-5.608 3.583-11.566 3.6-17.708V50v-.133c-.017-6.142-1.225-12.1-3.6-17.709-.175-.425-.367-.841-.55-1.25v1.025s.083.192.166.392a45.008 45.008 0 0 1 3.567 17.133v1.1a45.04 45.04 0 0 1-3.567 17.134 45.071 45.071 0 0 1-9.733 14.433 45.3 45.3 0 0 1-14.433 9.733 45.008 45.008 0 0 1-17.134 3.567h-1.1a45.007 45.007 0 0 1-17.133-3.567 45.071 45.071 0 0 1-14.433-9.733 45.602 45.602 0 0 1-9.734-14.45A45.284 45.284 0 0 1 4.584 50.55V50v-.55A45.042 45.042 0 0 1 8.15 32.317c.084-.2.167-.392.167-.392V30.9c-.192.417-.375.833-.55 1.25-2.375 5.617-3.583 11.575-3.6 17.717zM67.843 7.766c-5.609-2.375-11.567-3.583-17.709-3.6h-.266c-6.142.017-12.1 1.225-17.709 3.6a45.676 45.676 0 0 0-16.266 11.625l.291.292a57.17 57.17 0 0 1 1.7-1.8A45.299 45.299 0 0 1 32.318 8.15 45.36 45.36 0 0 1 49.45 4.583h1.1A45.01 45.01 0 0 1 67.684 8.15a45.072 45.072 0 0 1 14.434 9.733c.583.584 1.15 1.184 1.7 1.8l.291-.291a57.391 57.391 0 0 0-1.7-1.8 45.676 45.676 0 0 0-14.567-9.825z"></path>
		</g>
		<path d="M36.242 75.242l1.833-.992L13.825 50l6.442-6.442-1.417-1.408L11 50l25.242 25.242zM56.974 82.025l-1.833-.992L50 86.175l-5.141-5.142-1.834.992L50 89l6.975-6.975zM50 11L28.75 32.25l1.417 1.408L50 13.825l19.833 19.833 1.417-1.408L50 11zM89 50l-7.85-7.85-1.417 1.408L86.175 50l-24.25 24.25 1.833.992L89 50z"></path>
		<g opacity=".5">
			<path opacity=".5" d="M14.5 50l24.008 24.008.384-.208L15.083 50l5.817-5.808-.3-.3L14.5 50zM50 85.5l4.708-4.708-.384-.2L50 84.917l-4.325-4.325-.383.2 4.558 4.566.15.142zM50.15 14.642L50 14.5 30.5 33.992l.3.3L50 15.083l19.2 19.209.3-.3-19.35-19.35zM85.5 50l-6.1-6.108-.3.3L84.917 50 61.108 73.8l.384.208L85.5 50z"></path>
		</g>
		<g opacity=".25">
			<path opacity=".25" d="M50 84.25l3.9-3.892-.383-.208-3.516 3.517-3.517-3.517-.383.208 3.75 3.75.15.142zM15.75 50l23.567 23.575.383-.208L16.333 50l5.192-5.183-.3-.3L15.75 50zM50.15 15.892L50 15.75 31.125 34.617l.3.3L50 16.333l18.575 18.584.3-.3L50.15 15.892zM84.25 50l-5.475-5.483-.3.3L83.667 50 60.3 73.367l.383.208L84.25 50z"></path>
		</g>
		<path d="M27.192 50.566l-.833-.833-.834.834.834.833.533-.533 8.308 8.3v-.584l-8.008-8.017zM73.641 49.733l-.833.834-8.008 8.016v.584l8.308-8.3.533.533.834-.834-.834-.833z"></path>
		<g opacity=".5">
			<path opacity=".5" d="M73.1 51.525l-8.3 8.308v.584l8.6-8.592-.3-.3zM26.6 51.826l8.6 8.591v-.583l-8.3-8.308-.3.3z"></path>
		</g>
		<g opacity=".25">
			<path opacity=".25" d="M49.999 91.541l8.625-8.616-.383-.208-8.242 8.241-8.242-8.241-.383.208 8.475 8.475.15.141zM35.199 76.742v-.584L9.04 50l8.834-8.833-.292-.292L8.457 50l26.742 26.742zM50.148 8.6l-.15-.142-22.517 22.517.292.292L49.998 9.042l22.225 22.225.292-.292L50.148 8.6zM91.54 50l-9.125-9.125-.291.292L90.957 50 64.8 76.158v.584L91.54 50z"></path>
		</g>
		<g opacity=".5">
			<path opacity=".5" d="M58.109 33.908l-.834.834.542.541L50 43.092l-7.816-7.809.541-.541-.833-.834-.833.834.833.833L50 43.683l8.109-8.108.833-.833-.833-.834z"></path>
			<path opacity=".5" d="M55.625 31.417l-.3-.292L50 36.45l-5.325-5.325-.3.292L50 37.042l5.625-5.625z"></path>
		</g>
		<g opacity=".25">
			<path opacity=".25" d="M50 44.425l-9.316-9.308-.3.291L50 45.017l9.617-9.609-.3-.291L50 44.425z"></path>
			<path opacity=".25" d="M50.001 37.7l-5.95-5.95-.3.292 6.25 6.25 6.25-6.25-.3-.292-5.95 5.95z"></path>
		</g>
		<path d="M37.201 34.958v5.659l12.8 12.783 12.8-12.783v-5.659l-12.8 12.792-12.8-12.792z"></path>
		<path d="M10.325 16.65v14.142L37.2 57.658V66.6l9.967 4.983L37.2 77l-.025 5.933L50 75.958l12.825 6.975L62.8 77l-9.966-5.417L62.8 66.6v-8.942l26.875-26.866V16.65L50 56.308 10.325 16.65z"></path>
		<path d="M50.007 25.797L45.004 30.8l5.003 5.003 5.002-5.003-5.002-5.003z"></path>
		<g opacity=".5">
			<path opacity=".5" d="M16.25 16.875c-.476.484-.943.975-1.393 1.475l.592.592c.45-.5.917-1 1.392-1.483l-.592-.584zM50.407 96.458l.009.834c12.3-.1 23.916-4.909 32.708-13.534l-.584-.591C73.9 91.633 62.49 96.358 50.407 96.458zM50.399 2.708l-.008.834h.058c12.067.117 23.458 4.833 32.075 13.283l.583-.591c-8.766-8.6-20.358-13.4-32.65-13.526H50.4zM2.707 50.433c.108 12.3 4.917 23.917 13.55 32.7l.592-.583C8.374 73.917 3.649 62.508 3.54 50.425l-.833.008zM96.457 50.45c-.117 12.092-4.85 23.5-13.325 32.117l.591.583c8.626-8.775 13.442-20.383 13.567-32.692v-.083l-.833-.008v.083zM83.115 17.425c.492.5.967 1.008 1.434 1.525l.591-.591a40.996 40.996 0 0 0-1.433-1.517l-.592.583zM97.29 49.525c-.075-7.758-2.017-15.233-5.608-21.908v1.816c3.058 6.184 4.708 13.025 4.775 20.1l.833-.008zM16.849 16.267l.583.591c8.625-8.475 20.033-13.2 32.117-13.316l-.009-.833c-12.3.116-23.908 4.933-32.691 13.558zM17.44 83.142l-.583.591c8.775 8.617 20.375 13.434 32.675 13.55h.017l.008-.833h-.025c-12.066-.108-23.466-4.842-32.091-13.308zM2.707 49.575l.833.008v-.041c.067-7.075 1.717-13.925 4.775-20.109v-1.816c-3.591 6.675-5.533 14.158-5.608 21.925v.033z"></path>
		</g>
	</g>
</svg>