<svg width="86" height="86" viewBox="0 0 86 86" fill="none" xmlns="http://www.w3.org/2000/svg"><g clip-path="url(#a)" fill="#fff"><path d="M7.675 43.005l5.993-12.809L2.093 47.104l1.202 2.335 4.39-6.414-.01-.02z"></path><path d="M18.87 19.082l24.123-9.4 23.01 10.903L76.207 5.684l-.42-.2-6.906 5.24L42.993 0 12.586 12.598-.002 43.005 1.06 45.07l17.79-25.998.02.01zM78.321 42.995l-5.993 12.808 11.575-16.907-1.202-2.336-4.39 6.415.01.02z"></path><path d="M84.946 40.93l-17.8 25.998-.02-.01-24.123 9.4-23.01-10.903L9.79 80.318l.43.21 6.896-5.251L43.003 86 73.41 73.402l12.588-30.407-1.052-2.064z"></path><path d="M23.8 34.816c.097-.34.395-.68.83-.942.43-.259.968-.42 1.496-.42h12.739l.075-.109 3.468-5.061.268-.391H25.865c-2.003 0-3.99.607-5.585 1.59-1.593.981-2.82 2.351-3.264 3.892l-1.994 6.944c-.501 1.655.039 3.154 1.19 4.217 1.145 1.056 2.889 1.681 4.825 1.646h10.36c.438 0 .796.118 1.01.297.201.166.29.39.204.686l-1.153 4.01c-.097.339-.394.68-.83.942-.43.259-.967.42-1.495.42H15.55l-.075.109-3.467 5.06-.268.392h17.652c2.003 0 3.99-.61 5.586-1.594 1.593-.982 2.82-2.352 3.263-3.888l1.763-6.13v-.002c.502-1.655-.038-3.154-1.19-4.217-1.144-1.057-2.888-1.682-4.824-1.646H23.63c-.438 0-.796-.119-1.011-.297-.2-.167-.289-.39-.203-.686v-.001l1.383-4.82zM73.82 39.376l1.333-4.64c.596-2.054.364-3.74-.759-4.94-1.205-1.29-3.35-1.903-6.296-1.903H49.73l-.052.18-8.56 29.716-.091.32H48.222l.052-.182 7.144-24.814h11.036c.288 0 .613.017.9.075.297.06.51.155.62.275l.004.004c.141.147.206.456.04 1.02l-1.263 4.39-.067.236c-.182.477-.472.83-.87 1.076-.47.288-1.11.442-1.95.442h-6.545l-.075.108-3.237 4.72-.268.392h9.624c2.777 0 5.084-.55 6.854-1.64 1.774-1.092 2.992-2.718 3.6-4.835z" stroke="#fff" stroke-width=".5"></path></g><defs><clipPath id="a"><path fill="#fff" transform="translate(-.002)" d="M0 0h86v86H0z"></path></clipPath></defs></svg>